<svg xmlns="http://www.w3.org/2000/svg" version="1.1" viewBox="15 12 75 75">
 <g>
  <path d="m40.68 25.844-25.961 41.648c-0.78906 1.2109-1.2383 2.6094-1.3047 4.0547l-0.13281 10.609c0 0.95312 0.48438 1.5156 1.2031 1.5156 0.30078-0.007813 0.59375-0.082031 0.85938-0.22656l9.4609-4.8281c1.2617-0.70313 2.3125-1.7305 3.0547-2.9688l25.961-41.648z" fill="#36be79"/>
  <path d="m67.086 28.047-6.6719-4.6875c2.0039-3.6523 0.75391-8.2383-2.8281-10.363-3.5859-2.125-8.207-1.0273-10.453 2.4805l-3.9766 6.3984 13 8.0625 3.4609 2.4219-9.8438 16.406c-1.1094 1.8516-0.50781 4.25 1.3438 5.3594 1.8516 1.1094 4.25 0.50781 5.3594-1.3438l11.719-19.531c1.0508-1.7578 0.56641-4.0273-1.1094-5.2031z" fill="#36be79"/>
  <path d="m21.094 80.516 3.125-1.5625c-1.2305 0-2.3867 0.57812-3.125 1.5625z" fill="#36be79"/>
  <path d="m87.383 72.156c-1.5625-1.1172-4.2188-2.1719-8.1484-0.85938-2.2344 0.74219-4.5234 1.7344-6.7344 2.7031-1.6641 0.71875-4.0781 1.7734-5.8516 2.3438 0.51562-1.5234 1.2891-3.4375 1.8438-4.7891 2.4844-6.1016 4.2812-10.508 1.375-13.43-0.89844-0.90625-2.9453-2.2188-6.4766-0.78125-3.0469 1.2188-6.2031 3.9609-10.156 7.4297-4.8594 4.2266-10.469 9.1016-16.758 11.914l-1.9453 3.125c-1.4883 2.4492-3.6094 4.4531-6.1406 5.7969l-2.3984 1.2266h0.35937c13.406 0 24.094-9.2812 32.031-16.164 1.1172-0.96875 2.2109-1.9219 3.2344-2.7734l-0.29688 0.73437c-2.5078 5.9609-4.2891 10.273-1.9453 13.398 3.5078 4.6875 9.9844 1.8594 16.25-0.86719 2.0547-0.89844 4.1797-1.8281 6.0781-2.4609 0.33203-0.12109 0.68359-0.19141 1.0391-0.20312h0.078124c0.52734 0.82031 0.79688 1.7773 0.78125 2.75 0 2.1562 1.75 3.9062 3.9062 3.9062s3.9062-1.75 3.9062-3.9062c-0.007812-1.0312-0.20312-6.3359-4.0312-9.0938z" fill="#36be79"/>
 </g>
</svg>